<?xml version="1.0" encoding="utf-8"?>
<!-- Generator: Adobe Illustrator 17.0.0, SVG Export Plug-In . SVG Version: 6.00 Build 0)  -->
<!DOCTYPE svg PUBLIC "-//W3C//DTD SVG 1.1//EN" "http://www.w3.org/Graphics/SVG/1.1/DTD/svg11.dtd">
<svg version="1.1" id="Layer_1" xmlns="http://www.w3.org/2000/svg" xmlns:xlink="http://www.w3.org/1999/xlink" x="0px" y="0px"
	 width="1814.17px" height="1814.17px" viewBox="0 0 1814.17 1814.17" enable-background="new 0 0 1814.17 1814.17"
	 xml:space="preserve">
<path fill="#EBE5D6" d="M907.085,161.26c241.889,0,272.125,0,362.834,10.079c241.889,10.079,362.834,131.023,372.913,372.913
	c0,90.708,10.079,120.945,10.079,362.834s0,272.125-10.079,362.834c-10.079,241.889-120.945,362.834-372.913,372.913
	c-100.787,0-120.945,10.079-362.834,10.079s-272.125,0-362.834-10.079c-241.889-10.079-362.834-131.023-372.913-372.913
	c0-90.708-10.079-120.945-10.079-362.834s0-272.125,10.079-362.834c10.079-241.889,120.945-362.834,372.913-372.913
	C634.96,161.26,665.196,161.26,907.085,161.26z M907.085,0C655.117,0,624.881,0,534.172,0C201.575,20.157,20.158,201.574,0,534.172
	c0,90.708,0,120.945,0,372.913s0,282.204,10.079,372.913c20.157,332.598,201.574,514.015,524.094,524.094
	c90.709,10.079,120.945,10.079,372.913,10.079s282.204,0,372.913-10.079c332.598-20.158,514.015-201.574,524.094-524.094
	c0-100.787,10.079-131.023,10.079-372.913s0-282.204-10.079-372.913C1794.013,201.574,1612.596,20.157,1279.998,0
	C1179.211,0,1148.974,0,907.085,0z M907.085,443.464c-262.047,0-463.621,211.653-463.621,463.621s211.653,463.621,463.621,463.621
	s463.621-211.653,463.621-463.621C1370.706,645.038,1159.053,443.464,907.085,443.464z M907.085,1209.447
	c-171.338,0-302.362-131.023-302.362-302.362s131.023-302.362,302.362-302.362s302.362,131.023,302.362,302.362
	S1078.423,1209.447,907.085,1209.447z M1390.864,312.44c-60.472,0-110.866,50.394-110.866,110.866s50.394,110.866,110.866,110.866
	s110.866-50.394,110.866-110.866S1451.336,312.44,1390.864,312.44z"/>
</svg>
